<svg width="52" height="52" viewBox="0 0 52 52" fill="none" xmlns="http://www.w3.org/2000/svg">
<mask id="path-1-inside-1_1_5" fill="white">
<path d="M0 52H52V0H0V52Z"/>
</mask>
<path d="M0 0H-0.5V-0.5H0V0ZM-0.5 52V50.0741H0.5V52H-0.5ZM-0.5 48.1481V44.2963H0.5V48.1481H-0.5ZM-0.5 42.3704V38.5185H0.5V42.3704H-0.5ZM-0.5 36.5926V32.7407H0.5V36.5926H-0.5ZM-0.5 30.8148V26.963H0.5V30.8148H-0.5ZM-0.5 25.037V21.1852H0.5V25.037H-0.5ZM-0.5 19.2593V15.4074H0.5V19.2593H-0.5ZM-0.5 13.4815V9.62963H0.5V13.4815H-0.5ZM-0.5 7.7037V3.85185H0.5V7.7037H-0.5ZM-0.5 1.92592V0H0.5V1.92592H-0.5ZM0 -0.5H1.92593V0.5H0V-0.5ZM3.85185 -0.5H7.7037V0.5H3.85185V-0.5ZM9.62963 -0.5H13.4815V0.5H9.62963V-0.5ZM15.4074 -0.5H19.2593V0.5H15.4074V-0.5ZM21.1852 -0.5H25.037V0.5H21.1852V-0.5ZM26.963 -0.5H30.8148V0.5H26.963V-0.5ZM32.7407 -0.5H36.5926V0.5H32.7407V-0.5ZM38.5185 -0.5H42.3704V0.5H38.5185V-0.5ZM44.2963 -0.5H48.1482V0.5H44.2963V-0.5ZM50.0741 -0.5H52V0.5H50.0741V-0.5ZM0 0H-1V-1H0V0ZM-1 52V50.0741H1V52H-1ZM-1 48.1481V44.2963H1V48.1481H-1ZM-1 42.3704V38.5185H1V42.3704H-1ZM-1 36.5926V32.7407H1V36.5926H-1ZM-1 30.8148V26.963H1V30.8148H-1ZM-1 25.037V21.1852H1V25.037H-1ZM-1 19.2593V15.4074H1V19.2593H-1ZM-1 13.4815V9.62963H1V13.4815H-1ZM-1 7.7037V3.85185H1V7.7037H-1ZM-1 1.92592V0H1V1.92592H-1ZM0 -1H1.92593V1H0V-1ZM3.85185 -1H7.7037V1H3.85185V-1ZM9.62963 -1H13.4815V1H9.62963V-1ZM15.4074 -1H19.2593V1H15.4074V-1ZM21.1852 -1H25.037V1H21.1852V-1ZM26.963 -1H30.8148V1H26.963V-1ZM32.7407 -1H36.5926V1H32.7407V-1ZM38.5185 -1H42.3704V1H38.5185V-1ZM44.2963 -1H48.1482V1H44.2963V-1ZM50.0741 -1H52V1H50.0741V-1Z" fill="#808080" mask="url(#path-1-inside-1_1_5)"/>
</svg>
